<svg xmlns="http://www.w3.org/2000/svg" xmlns:xlink="http://www.w3.org/1999/xlink" viewBox="0 0 289.03 82.59"><defs><style>.cls-1{fill:none;}.cls-2{clip-path:url(#clip-path);}.cls-3{fill:url(#Безымянный_градиент_15);}.cls-4{clip-path:url(#clip-path-2);}.cls-5{fill:url(#Безымянный_градиент_16);}.cls-6{clip-path:url(#clip-path-3);}.cls-7{fill:url(#Безымянный_градиент_17);}.cls-8{clip-path:url(#clip-path-4);}.cls-9{fill:url(#Безымянный_градиент_18);}.cls-10{clip-path:url(#clip-path-5);}.cls-11{fill:url(#Безымянный_градиент_19);}.cls-12{clip-path:url(#clip-path-6);}.cls-13{fill:url(#Безымянный_градиент_20);}.cls-14{clip-path:url(#clip-path-7);}.cls-15{fill:url(#Безымянный_градиент_21);}.cls-16{fill:#0b60a3;}.cls-17{fill:#961a15;}</style><clipPath id="clip-path" transform="translate(0)"><path class="cls-1" d="M21,77.56Zm-2.17-8.82h0l-.17.18h0a9.07,9.07,0,0,0-.88,1h0l-.1.16,0,0-.09.14,0,0-.08.13,0,.05-.08.14v0a4.44,4.44,0,0,0-.28.64l0,.05a.56.56,0,0,1,0,.12.25.25,0,0,1,0,.07l0,.11s0,0,0,.08l0,.11V72s0,.07,0,.11,0,.05,0,.08,0,.07,0,.11v.45a.38.38,0,0,0,0,.1,3225414727021.94,3225414727021.94,0,0,1,0,.18s0,.06,0,.09,0,.07,0,.1a.29.29,0,0,0,0,.09.36.36,0,0,0,0,.1.29.29,0,0,1,0,.09.76.76,0,0,0,0,.11s0,.05,0,.07,0,.09,0,.13a.14.14,0,0,0,0,.06,1.42,1.42,0,0,0,.08.18h0a1.74,1.74,0,0,0,.1.19s0,0,0,.05,0,.09.08.14l0,.06.08.13a.43.43,0,0,1,0,.07l.09.12.05.06.09.13.05.06.12.14,0,0,.16.18h0q.18.2.39.39l0,0,.17.16.06.05.16.14a.18.18,0,0,1,.07,0l.18.14.06,0,.2.15.05,0,.25.18h0l.29.2c.29.19.61.38.94.56h0l1,.53.06,0c6.5,3,18.11,4.47,19.62,1.78,1.39-2.49-4.19-7.44-18.88-14.19a23.19,23.19,0,0,0-4,3"/></clipPath><radialGradient id="Безымянный_градиент_15" cx="-153.35" cy="602.84" r="1" gradientTransform="translate(1889.79 -7233.07) scale(12.12)" gradientUnits="userSpaceOnUse"><stop offset="0" stop-color="#f18708"/><stop offset="0.68" stop-color="#f18708"/><stop offset="0.84" stop-color="#ed710d"/><stop offset="1" stop-color="#ea5e11"/></radialGradient><clipPath id="clip-path-2" transform="translate(0)"><path class="cls-1" d="M38.34,2.37C37,4.87,42.53,9.82,57.22,16.56c.1,0,.19-.12.29-.18h0c.66-.41,1.27-.83,1.82-1.24l0,0,.22-.16,0,0,.21-.16,0,0L60,14.6h0c.3-.23.57-.47.83-.7h0l.17-.16,0,0,.15-.15s0,0,0,0a1.85,1.85,0,0,0,.14-.14l0,0,.13-.14,0,0,.13-.15h0q.23-.26.42-.51h0l.1-.14,0-.05.09-.13a.21.21,0,0,1,0-.06l.08-.12a.21.21,0,0,1,0-.06.75.75,0,0,1,.07-.12l0-.07a.75.75,0,0,0,.07-.12l0-.06a.54.54,0,0,0,.07-.13v0c0-.1.1-.2.14-.3v0l0-.12a.19.19,0,0,1,0-.07l0-.11,0-.08s0-.07,0-.1a.29.29,0,0,0,0-.09l0-.1s0-.05,0-.08,0-.07,0-.11,0,0,0-.08,0-.07,0-.1a.28.28,0,0,1,0-.09V9.56a.28.28,0,0,0,0-.09.34.34,0,0,0,0-.1.28.28,0,0,0,0-.09V9.19s0-.07,0-.1a.29.29,0,0,0,0-.09.44.44,0,0,0,0-.1.29.29,0,0,1,0-.09l0-.1,0-.09,0-.1,0-.08-.06-.14a.59.59,0,0,1,0-.08l-.07-.15a.3.3,0,0,1,0-.08.41.41,0,0,1-.07-.11.35.35,0,0,0,0-.08l-.07-.11a.35.35,0,0,0-.05-.08l-.07-.1-.06-.09-.09-.11-.06-.08-.09-.11L62.11,7,62,6.91l-.05,0a1.57,1.57,0,0,0-.18-.19l0,0-.14-.14-.08-.07-.13-.11-.09-.08-.13-.11L61,6l-.14-.11-.09-.08-.16-.12-.1-.07-.17-.12-.09-.06L60,5.28c-.14-.1-.29-.19-.44-.28l-.47-.27,0,0c-.35-.18-.69-.36-1-.53l-.06,0A39.34,39.34,0,0,0,43.33,1c-2.52,0-4.44.43-5,1.41"/></clipPath><radialGradient id="Безымянный_градиент_16" cx="-153.35" cy="602.84" r="1" gradientTransform="translate(2410.87 -9276.52) scale(15.41)" gradientUnits="userSpaceOnUse"><stop offset="0" stop-color="#f18708"/><stop offset="0.28" stop-color="#f18708"/><stop offset="0.73" stop-color="#f18708"/><stop offset="0.81" stop-color="#f0800a"/><stop offset="0.93" stop-color="#ec6c0e"/><stop offset="1" stop-color="#ea5e11"/></radialGradient><clipPath id="clip-path-3" transform="translate(0)"><path class="cls-1" d="M79.28,53.62c-2.17,4.69-7.91,10.44-21.43,16.8-9.56,4.5-19.58,9.4-19.69,11.17v.06c0,.41.61.64,1.89.64h.4A41,41,0,0,0,79.28,53.62Z"/></clipPath><radialGradient id="Безымянный_градиент_17" cx="-153.35" cy="602.84" r="1" gradientTransform="translate(3386.31 -13054.5) scale(21.76)" gradientUnits="userSpaceOnUse"><stop offset="0" stop-color="#105497"/><stop offset="0.08" stop-color="#134d8d"/><stop offset="0.25" stop-color="#19407d"/><stop offset="0.38" stop-color="#184482"/><stop offset="0.53" stop-color="#145090"/><stop offset="0.66" stop-color="#0f5ea2"/><stop offset="0.75" stop-color="#1362a5"/><stop offset="0.84" stop-color="#216eb0"/><stop offset="0.94" stop-color="#3682c1"/><stop offset="1" stop-color="#4690cd"/></radialGradient><clipPath id="clip-path-4" transform="translate(0)"><path class="cls-1" d="M59.1,4.73c.32.18.63.36.91.55C72.84,13.75,44.9,22.11,23.07,32,9.13,38.36.05,43.39,0,49.42v.1a6.36,6.36,0,0,0,.07.86C1.06,57,6.65,70,21,77.56c-.33-.18-.65-.37-.94-.56C7.24,68.52,35.18,60.16,57,50.25c13.9-6.32,23-11.33,23.08-17.33v-.23a7.41,7.41,0,0,0-.07-.8C79,25.27,73.44,12.26,59.1,4.73Z"/></clipPath><radialGradient id="Безымянный_градиент_18" cx="-153.35" cy="602.84" r="1" gradientTransform="translate(9360.5 -36563.49) scale(60.7)" gradientUnits="userSpaceOnUse"><stop offset="0" stop-color="#7aa8db"/><stop offset="0.21" stop-color="#568dca"/><stop offset="0.24" stop-color="#4c83c1"/><stop offset="0.38" stop-color="#2c65a7"/><stop offset="0.49" stop-color="#185296"/><stop offset="0.56" stop-color="#114b90"/><stop offset="0.69" stop-color="#134485"/><stop offset="0.79" stop-color="#05488a"/><stop offset="0.89" stop-color="#0c559d"/><stop offset="0.92" stop-color="#0e5aa4"/><stop offset="0.94" stop-color="#1761a9"/><stop offset="0.96" stop-color="#2e73b6"/><stop offset="1" stop-color="#5491cc"/><stop offset="1" stop-color="#5894cf"/></radialGradient><clipPath id="clip-path-5" transform="translate(0)"><path class="cls-1" d="M57,50.25c-5.51,2.5-11.42,4.91-17,7.24,9.29,3.92,17.55,7.63,21.21,11.26a68.22,68.22,0,0,0,10-6.15l0,0,.6-.46,0,0,.57-.46,0,0,.54-.45a0,0,0,0,0,0,0l.49-.41.09-.09c.14-.12.29-.25.42-.38a1.5,1.5,0,0,0,.13-.11l.38-.36.14-.14.34-.33.15-.15.25-.26a2.39,2.39,0,0,0,.22-.23l.19-.2.26-.28.15-.17c.09-.12.19-.23.29-.34l.1-.12c.2-.24.38-.47.56-.71l0,0,.33-.44a0,0,0,0,1,0,0,16.44,16.44,0,0,0,1.62-2.74A23.77,23.77,0,0,0,80,50.38c.49-3.28-1.67-6.25-5.83-9.24-4,2.9-10,5.83-17.18,9.11"/></clipPath><radialGradient id="Безымянный_градиент_19" cx="-153.35" cy="602.84" r="1" gradientTransform="translate(5571.02 -21706.12) scale(36.07)" gradientUnits="userSpaceOnUse"><stop offset="0" stop-color="#f18708"/><stop offset="0.75" stop-color="#f18708"/><stop offset="0.84" stop-color="#ef7b0b"/><stop offset="1" stop-color="#ea5e11"/></radialGradient><clipPath id="clip-path-6" transform="translate(0)"><path class="cls-1" d="M6.43,21.6l0,0-.46.42-.09.07c-.14.14-.27.27-.41.39l-.1.1L4.94,23l-.11.12-.32.32-.14.15-.25.27-.18.2-.22.24c-.05.07-.1.12-.15.18l-.24.28-.16.2L3,25.16c-.07.09-.14.17-.2.26l-.09.1-.27.37,0,.08-.29.4,0,0A16,16,0,0,0,.8,28.67a23.54,23.54,0,0,0-.73,3.22,6.38,6.38,0,0,0-.07.87v.1c0,2.9,2.15,5.57,5.9,8.28,4-2.91,10-5.84,17.17-9.12,5.52-2.5,11.43-4.91,17-7.24-9.28-3.91-17.53-7.62-21.2-11.25A60.69,60.69,0,0,0,6.43,21.6"/></clipPath><radialGradient id="Безымянный_градиент_20" cx="-153.35" cy="602.84" r="1" gradientTransform="translate(5569.1 -21698.67) scale(36.05)" gradientUnits="userSpaceOnUse"><stop offset="0" stop-color="#f18708"/><stop offset="0.66" stop-color="#f18708"/><stop offset="0.9" stop-color="#ec6b0e"/><stop offset="1" stop-color="#ea5e11"/></radialGradient><clipPath id="clip-path-7" transform="translate(0)"><path class="cls-1" d="M.8,28.67C3,24,8.71,18.23,22.22,11.87,34.14,6.26,46.77,0,40,0h-.2A41,41,0,0,0,.8,28.67"/></clipPath><radialGradient id="Безымянный_градиент_21" cx="-153.35" cy="602.84" r="1" gradientTransform="translate(-3305.53 13134.09) rotate(180) scale(21.76)" gradientUnits="userSpaceOnUse"><stop offset="0" stop-color="#105497"/><stop offset="0.06" stop-color="#134d8d"/><stop offset="0.17" stop-color="#19407d"/><stop offset="0.28" stop-color="#184482"/><stop offset="0.4" stop-color="#145090"/><stop offset="0.5" stop-color="#0f5ea2"/><stop offset="0.61" stop-color="#1463a6"/><stop offset="0.75" stop-color="#2370b1"/><stop offset="0.89" stop-color="#3b86c4"/><stop offset="0.94" stop-color="#4690cd"/><stop offset="1" stop-color="#4690cd"/></radialGradient></defs><g id="Слой_2" data-name="Слой 2"><g id="Слой_1-2" data-name="Слой 1"><g class="cls-2"><rect class="cls-3" x="16.83" y="65.71" width="26.3" height="16.88"/></g><g class="cls-4"><rect class="cls-5" x="36.95" y="0.96" width="26.31" height="15.61"/></g><g class="cls-6"><rect class="cls-7" x="38.16" y="53.62" width="41.12" height="28.67"/></g><g class="cls-8"><rect class="cls-9" y="4.73" width="80.08" height="72.83"/></g><g class="cls-10"><rect class="cls-11" x="40.04" y="41.14" width="40.46" height="27.62"/></g><g class="cls-12"><rect class="cls-13" y="13.53" width="40.04" height="27.6"/></g><g class="cls-14"><rect class="cls-15" x="0.8" width="45.98" height="28.67"/></g><path class="cls-16" d="M107.55,42.05c-1.79,1.12-3.9,1.48-8.5,1.48H97.13V56.09h-6v-33h8c4.29,0,6.44.41,8.28,1.52a9.81,9.81,0,0,1,4.38,8.67c0,3.8-1.62,7.16-4.25,8.81M103,29.22a15.62,15.62,0,0,0-3.81-.31h-2v8.76h1.75a11.41,11.41,0,0,0,4.9-.76,3.89,3.89,0,0,0,2-3.58A4,4,0,0,0,103,29.22" transform="translate(0)"/><polygon class="cls-16" points="123.72 64.36 117.45 64.36 122.01 53.76 113.55 31.32 119.51 31.32 125.16 47.37 131.78 31.32 137.73 31.32 123.72 64.36"/><path class="cls-16" d="M150.26,56.67a12.93,12.93,0,0,1-13-13,12.73,12.73,0,0,1,12.8-13A13,13,0,0,1,159,34.23a11.12,11.12,0,0,1,3.29,5.36h-6.57a5.87,5.87,0,0,0-5.65-3.39c-4,0-6.93,3.12-6.93,7.46s3,7.56,7.06,7.56c2.41,0,4.07-1,5.52-3.27h6.57c-2,5.54-6.4,8.72-12.05,8.72" transform="translate(0)"/><polygon class="cls-16" points="171.59 28.91 171.59 56.09 165.59 56.09 165.59 23.05 185.17 23.05 185.17 28.91 171.59 28.91"/><polygon class="cls-16" points="197.75 56.09 197.75 39.86 188.46 56.09 181.98 56.09 181.98 31.32 187.8 31.32 187.8 47.55 197.09 31.32 203.57 31.32 203.57 56.09 197.75 56.09"/><path class="cls-16" d="M227,61.45V56.09h-14.5v5.36h-5.87V50.23H210l7.45-18.91h4.64l7.45,18.91h3.33V61.45Zm-7.27-21.77-3.63,10.55h7.22Z" transform="translate(0)"/><path class="cls-16" d="M248.74,56.67a10.28,10.28,0,0,1-7.45-2.91v10.6h-5.82v-33h5.34v2.91a10.15,10.15,0,0,1,8-3.49c7,0,12.09,5.41,12.09,12.88s-5.12,13.05-12.13,13.05M248,36.2a7.14,7.14,0,0,0-7.1,7.46c0,4.34,3.07,7.55,7.19,7.55C252,51.21,255,48,255,43.75s-3-7.55-7-7.55" transform="translate(0)"/><path class="cls-16" d="M276.1,56.67A13,13,0,1,1,289,43.88,12.94,12.94,0,0,1,276.1,56.67m0-20.47a7.28,7.28,0,0,0-7,7.42,7,7,0,1,0,7-7.42" transform="translate(0)"/><polyline class="cls-17" points="20.48 77.78 20.48 77.78 20.48 77.78"/></g></g></svg>